<svg id="logo" xmlns="http://www.w3.org/2000/svg" viewBox="0 0 200.5 36.3"><defs><style>.cls-1{fill:#0bbbef;}</style></defs><title>logo</title><rect class="cls-1" x="103.78" width="7.45" height="36.3"></rect><path class="cls-1" d="M45.6,0H6.05A6.05,6.05,0,0,0,0,6.05V36.3H7.11v-28A2.42,2.42,0,0,1,9.53,5.91H22.27V36.3h7.11V5.91H42.12a2.42,2.42,0,0,1,2.42,2.42v28h7.11V6.05A6.05,6.05,0,0,0,45.6,0Z"></path><path class="cls-1" d="M59.22,6.05v24.2a6.05,6.05,0,0,0,6.05,6.05H96.12V30.39H68.75A2.42,2.42,0,0,1,66.33,28V21.11h28.3V15.19H66.33V8.33a2.42,2.42,0,0,1,2.42-2.42H96.12V0H65.27A6.05,6.05,0,0,0,59.22,6.05Z"></path><path class="cls-1" d="M151,0H119.11V5.91h26.35L120.19,28.36c-4.05,3.47-1.42,7.94,1.95,7.94h32.2V30.39H127.47L152.79,7.94C156.87,4.27,154.41,0,151,0Z"></path><path class="cls-1" d="M193.38,0V28A2.42,2.42,0,0,1,191,30.39H170.65A2.42,2.42,0,0,1,168.23,28V0h-7.09V30.25a6.05,6.05,0,0,0,6.05,6.05h27.25a6.05,6.05,0,0,0,6.05-6.05V0Z"></path></svg>