<svg xmlns="http://www.w3.org/2000/svg" xmlns:xlink="http://www.w3.org/1999/xlink" width="19" height="19" viewBox="0 0 19 19"><defs><path id="mfjha" d="M1257.002 29.01c0 1.849-.627 3.55-1.68 4.905l4.678 4.68-1.413 1.413-4.678-4.679a7.997 7.997 0 0 1-12.9-6.319 7.997 7.997 0 1 1 15.993 0zm-1.999 0a6.005 6.005 0 0 0-5.997-5.999 6.005 6.005 0 0 0-5.998 5.999c0 3.308 2.69 6 5.998 6a6.005 6.005 0 0 0 5.997-6z"/></defs><g><g transform="translate(-1241 -21)"><use fill="#808285" xlink:href="#mfjha"/></g></g></svg>